<?xml version="1.0" encoding="UTF-8" standalone="no"?>
<!-- Created with Inkscape (http://www.inkscape.org/) -->

<svg
   width="93.368408mm"
   height="35.984051mm"
   viewBox="0 0 93.368409 35.984051"
   version="1.1"
   id="svg965"
   inkscape:version="1.2.1 (9c6d41e410, 2022-07-14)"
   sodipodi:docname="icon.svg"
   xmlns:inkscape="http://www.inkscape.org/namespaces/inkscape"
   xmlns:sodipodi="http://sodipodi.sourceforge.net/DTD/sodipodi-0.dtd"
   xmlns="http://www.w3.org/2000/svg"
   xmlns:svg="http://www.w3.org/2000/svg">
  <sodipodi:namedview
     id="namedview967"
     pagecolor="#ffffff"
     bordercolor="#000000"
     borderopacity="0.25"
     inkscape:showpageshadow="2"
     inkscape:pageopacity="0.0"
     inkscape:pagecheckerboard="0"
     inkscape:deskcolor="#d1d1d1"
     inkscape:document-units="mm"
     showgrid="false"
     inkscape:zoom="0.72515432"
     inkscape:cx="202.71547"
     inkscape:cy="109.63184"
     inkscape:window-width="1920"
     inkscape:window-height="1001"
     inkscape:window-x="-9"
     inkscape:window-y="-9"
     inkscape:window-maximized="1"
     inkscape:current-layer="layer1" />
  <defs
     id="defs962" />
  <g
     inkscape:label="Layer 1"
     inkscape:groupmode="layer"
     id="layer1"
     transform="translate(-51.464441,-101.31916)">
    <path
       style="fill:#000000;stroke-width:0.47385"
       d="m 96.179641,89.856203 c -0.495391,-0.08559 -0.900715,-0.428789 -0.900715,-0.762649 0,-0.333904 0.405324,-0.787515 0.900715,-1.008084 1.850897,-0.824116 10.271339,-3.074853 13.146319,-3.51398 1.63962,-0.250406 3.37671,-0.661614 3.86022,-0.913767 0.99742,-0.520182 -1.49059,-0.313094 -8.3854,0.697954 -2.26467,0.332073 -7.550017,1.108682 -11.745218,1.725757 -5.954028,0.875768 -7.789169,1.0083 -8.363792,0.604117 -1.332279,-0.937194 -0.774114,-1.608798 1.966021,-2.365689 1.486172,-0.41051 3.628593,-1.093631 4.760915,-1.518057 1.132322,-0.424471 3.853781,-1.122075 6.047675,-1.550252 2.193874,-0.428222 3.988879,-0.939375 3.988879,-1.135948 0,-0.196573 -0.28952,-0.278196 -0.64337,-0.181393 -0.35385,0.0968 -4.450947,0.985661 -9.104637,1.97529 -4.65369,0.989586 -10.412001,2.278438 -12.796262,2.864059 -6.008438,1.475785 -8.337413,1.35599 -8.337413,-0.428876 0,-0.169963 6.895457,-2.429904 8.02669,-2.630709 0.539257,-0.09571 2.370138,-0.74856 4.068621,-1.4507 1.698502,-0.702142 4.330283,-1.623106 5.848398,-2.046573 1.518133,-0.423466 3.371035,-1.040059 4.117564,-1.370213 0.74653,-0.330153 1.587873,-0.601498 1.86965,-0.602939 0.486209,-0.0043 13.113369,-3.356146 17.501989,-4.648314 l 2.05879,-0.606166 -2.31613,0.254463 c -6.77256,0.744065 -22.691458,4.655512 -36.23886,8.90431 -7.611601,2.387151 -9.72099,2.608503 -9.983567,1.047519 -0.136366,-0.810243 0.919253,-1.379286 7.917422,-4.268254 4.441049,-1.833333 8.191476,-3.234346 8.334262,-3.11333 0.142785,0.121007 0.878907,-0.153735 1.635824,-0.610573 0.756937,-0.456796 2.056944,-0.972834 2.888931,-1.146723 0.831967,-0.173889 1.975903,-0.563197 2.542064,-0.865124 1.430148,-0.762781 9.376088,-3.300132 14.926154,-4.766407 2.54774,-0.673043 4.86386,-1.364455 5.14694,-1.536423 0.2831,-0.171969 1.39877,-0.554123 2.47929,-0.849246 1.08054,-0.295121 1.8529,-0.631251 1.71638,-0.746988 -0.6594,-0.558876 -19.136004,4.416929 -28.643654,7.713833 -16.830353,5.836174 -16.589524,5.764936 -17.850275,5.278083 -0.656404,-0.253505 -1.193443,-0.827302 -1.193443,-1.275156 0,-0.860019 1.50473,-2.258196 2.430267,-2.258196 0.301269,0 0.693811,-0.322562 0.872312,-0.7168 0.178385,-0.394238 0.46664,-0.596351 0.640336,-0.449161 0.173715,0.147239 0.920984,-0.09725 1.660627,-0.54326 2.019166,-1.217569 15.74005,-7.206911 20.13731,-8.790153 2.119758,-0.763228 7.559895,-2.806734 12.08922,-4.541122 4.52931,-1.73439 9.11917,-3.398223 10.19971,-3.697412 1.08052,-0.299187 1.86992,-0.624214 1.75422,-0.722282 -0.33238,-0.281725 -9.96561,2.239668 -16.659227,4.360368 -7.31965,2.319036 -12.15046,4.080235 -20.932511,7.631468 -8.211066,3.320374 -8.716728,3.43419 -10.088867,2.271197 -1.995647,-1.691511 -2.453902,-1.318561 9.991933,-8.132565 2.733442,-1.496537 10.198212,-4.741371 22.774462,-9.899742 0.63652,-0.261073 1.06517,-0.552761 0.95257,-0.648196 -0.31282,-0.265142 -13.820752,4.50854 -18.801097,6.644282 -2.426182,1.040431 -7.769618,3.484024 -11.874305,5.430216 -4.104706,1.946173 -7.902657,3.484037 -8.439911,3.417422 -1.572427,-0.194961 -2.179887,-1.407295 -1.357646,-2.709536 0.388399,-0.615101 0.802593,-1.03663 0.920459,-0.936733 0.117885,0.09988 0.600028,-0.08642 1.071492,-0.414009 6.547559,-4.54954 15.307142,-9.532556 16.062017,-9.137119 0.212038,0.11108 0.509961,-0.07288 0.662025,-0.408777 0.152123,-0.335903 0.986989,-0.742997 1.855372,-0.904653 0.868364,-0.16165 1.578866,-0.478845 1.578866,-0.704859 0,-0.226016 0.636931,-0.641003 1.415403,-0.922191 0.778471,-0.281189 1.831853,-0.806707 2.340822,-1.167823 0.508969,-0.361115 1.315414,-0.705087 1.792091,-0.764386 0.476677,-0.05931 0.948082,-0.314815 1.047584,-0.567817 0.0994,-0.253002 0.600048,-0.460007 1.112344,-0.460007 0.512276,0 1.064742,-0.294467 1.227681,-0.654373 0.163016,-0.359904 0.604639,-0.654372 0.981522,-0.654372 0.376902,0 0.964325,-0.236534 1.305415,-0.52563 0.625726,-0.530361 2.182591,-1.305845 10.973416,-5.465898 2.65386,-1.255876 4.45408,-2.286512 4.00051,-2.290303 -0.7639,-0.0064 -8.06847,2.470662 -14.101477,4.781937 -3.755058,1.438581 -19.984312,8.317454 -20.587784,8.72626 -0.28308,0.19177 -2.117871,1.053443 -4.077336,1.914834 -2.660746,1.169681 -3.732958,1.446355 -4.235411,1.09291 -0.441778,-0.310765 -0.516808,-0.719647 -0.218516,-1.190883 0.679825,-1.073948 9.543307,-8.567047 11.479058,-9.704286 0.926451,-0.544285 2.535178,-1.591469 3.574942,-2.327075 1.039765,-0.735607 3.075018,-2.093765 4.52281,-3.018128 1.996815,-1.27491 2.500143,-1.815653 2.084801,-2.239826 -0.435631,-0.444903 -1.359884,-0.258555 -4.52281,0.911894 -2.186404,0.809089 -4.264805,1.473468 -4.618655,1.476396 -0.353851,0.0031 -0.64337,0.201639 -0.64337,0.441576 0,0.239935 -0.356788,0.436248 -0.792867,0.436248 -3.115422,0 11.697418,-7.8129 14.92417,-7.87162 1.819851,-0.03311 4.822465,-1.130841 7.720227,-2.822421 2.530198,-1.47702 2.872198,-1.567663 3.596978,-0.953352 0.44052,0.373372 0.80092,1.271827 0.80092,1.996566 0,1.475753 0.59005,1.043266 -10.532781,7.720187 -3.952991,2.372947 -7.774598,4.77795 -8.492453,5.344457 l -1.305201,1.030019 1.801428,-0.852374 c 4.606711,-2.179714 10.218482,-4.436746 15.955547,-6.417252 1.84003,-0.635204 4.15616,-1.47832 5.14694,-1.873596 0.99079,-0.395272 1.99952,-0.670597 2.24164,-0.61183 0.24211,0.05876 0.70532,-0.07022 1.02939,-0.286641 1.09645,-0.732261 7.43184,-2.299273 9.64763,-2.386279 2.16423,-0.08498 2.21049,-0.05685 2.6953,1.638064 0.47172,1.649138 0.41334,1.782629 -1.3352,3.05374 -1.00566,0.731069 -2.71899,1.694658 -3.80738,2.141317 -1.0884,0.446652 -2.55794,1.088574 -3.26564,1.426483 -2.9213,1.394843 -12.70925,5.27283 -13.989455,5.54262 -0.758668,0.159885 -1.697588,0.560382 -2.086473,0.889998 -0.878752,0.74482 -12.895375,6.658277 -14.295585,7.034955 -0.56369,0.151642 -1.024883,0.458786 -1.024883,0.682555 0,0.223765 -0.31152,0.406849 -0.692255,0.406849 -0.380754,0 -1.120514,0.401074 -1.643917,0.891269 -0.928104,0.869243 -0.926879,0.883508 0.04883,0.577136 0.550287,-0.172781 1.116331,-0.445109 1.257872,-0.605182 0.675409,-0.763806 11.080426,-4.789459 12.379227,-4.789459 0.812592,0 1.891788,-0.366229 2.398209,-0.813847 0.50642,-0.447617 1.731417,-1.113986 2.722198,-1.480819 3.301192,-1.222245 13.071132,-4.115376 17.341482,-5.135259 4.62313,-1.104136 5.48484,-0.939343 5.95346,1.138538 0.34718,1.539281 -1.64643,2.712192 -8.86494,5.215586 -3.24523,1.125455 -6.60362,2.480692 -7.46308,3.011636 -0.85945,0.530949 -3.53134,1.704759 -5.937526,2.60847 -5.792937,2.17568 -20.131902,8.454564 -21.079167,9.23034 -0.644109,0.527503 -0.500293,0.537571 1.029396,0.07205 0.977943,-0.297614 1.963317,-0.786508 2.189691,-1.086429 0.226375,-0.299921 0.642904,-0.54531 0.925595,-0.54531 0.282692,0 1.472731,-0.392624 2.644562,-0.872498 1.171831,-0.479874 2.406145,-0.872497 2.742935,-0.872497 0.336791,0 0.881826,-0.275207 1.211165,-0.611571 0.32936,-0.336361 1.226281,-0.738416 1.993138,-0.893451 1.554064,-0.314178 8.611151,-2.648709 10.021221,-3.315081 0.49859,-0.235622 1.93041,-0.509752 3.18184,-0.609182 1.25143,-0.09942 3.27544,-0.651328 4.49779,-1.226434 2.42774,-1.142238 5.10467,-2.021627 7.11205,-2.336351 0.70772,-0.110949 1.98158,-0.471069 2.83083,-0.80025 0.84924,-0.329179 3.09657,-0.736351 4.99407,-0.904822 3.38946,-0.300941 3.45572,-0.286933 3.77712,0.798421 0.8245,2.7844 -0.4572,3.512075 -14.43284,8.194173 -9.63229,3.226999 -24.695759,8.697742 -29.594946,10.748283 -5.909889,2.473573 -11.323278,5.096123 -11.323278,5.485606 0,0.48284 0.737931,0.305243 5.146941,-1.238814 1.840043,-0.644427 3.90399,-1.59174 4.586577,-2.10516 0.682587,-0.513422 1.066882,-0.678061 0.854007,-0.365839 -0.286484,0.420238 0.121971,0.387476 1.571727,-0.125985 1.077329,-0.3815 2.0827,-0.851513 2.234162,-1.044378 0.151539,-0.19291 1.046923,-0.478042 1.989889,-0.633652 0.942986,-0.155566 2.305982,-0.677232 3.028915,-1.159198 0.722913,-0.482011 1.57268,-0.873327 1.888344,-0.869662 0.315684,0.0043 0.22655,0.196966 -0.198071,0.429574 -0.42462,0.232608 -0.510895,0.42591 -0.191612,0.429573 0.319185,0.0043 0.873305,-0.292547 1.231396,-0.658255 0.358092,-0.365707 0.766352,-0.567166 0.90729,-0.447721 0.140839,0.11944 0.86066,-0.04821 1.599408,-0.372557 3.030881,-1.330732 4.106861,-1.659314 4.766631,-1.455585 0.38175,0.117873 1.44334,-0.167957 2.35907,-0.635179 1.06155,-0.541629 2.06422,-0.742098 2.76661,-0.553146 0.74248,0.199741 0.98683,0.138896 0.74947,-0.18663 -0.19376,-0.265641 -0.049,-0.498004 0.32155,-0.516362 0.37057,-0.01837 1.13698,-0.130982 1.70314,-0.250284 0.56616,-0.119291 1.59013,-0.201852 2.27548,-0.183456 0.68535,0.01842 1.74682,-0.244648 2.35885,-0.584542 0.61201,-0.33989 1.78838,-0.722759 2.61412,-0.850816 0.82576,-0.128047 2.77523,-0.543251 4.33219,-0.922656 1.55694,-0.379405 3.40984,-0.764639 4.11754,-0.856068 0.70772,-0.09143 3.32398,-0.524523 5.81395,-0.962421 3.979,-0.699773 4.58703,-0.71775 5.02122,-0.148459 1.67154,2.191586 0.12527,2.858024 -17.78354,7.664645 -13.50458,3.624569 -27.656754,7.811682 -32.94047,9.745833 -0.566161,0.207261 -2.144696,0.760512 -3.507867,1.229479 -2.448378,0.842265 -3.079746,1.450045 -1.863367,1.793679 0.358538,0.101303 0.471736,-0.03359 0.265572,-0.31628 -0.2283,-0.313096 0.08345,-0.49283 0.854805,-0.49283 0.667784,0 1.434195,-0.163859 1.703133,-0.364137 0.611,-0.455051 3.964858,-1.461127 8.981425,-2.694227 2.123104,-0.521883 4.969841,-1.231704 6.326086,-1.57743 1.356227,-0.345727 2.723793,-0.493483 3.039013,-0.328365 0.34758,0.18209 0.4286,0.102045 0.20589,-0.203422 -0.20198,-0.277017 -0.17994,-0.50426 0.0492,-0.505045 1.3666,-0.0043 9.75721,-1.434777 10.18962,-1.736879 0.28636,-0.200064 1.56293,-0.46683 2.83681,-0.592817 1.27386,-0.125986 3.12677,-0.443012 4.11755,-0.704499 0.9908,-0.261487 2.61207,-0.572576 3.60287,-0.691279 2.62177,-0.314142 4.71301,-0.607693 6.17634,-0.866913 0.7077,-0.125343 2.70883,-0.347298 4.44694,-0.493178 2.90948,-0.24417 3.18777,-0.191645 3.5074,0.661964 0.69551,1.857283 0.38617,1.980262 -11.1822,4.445458 -4.59403,0.978941 -9.85827,2.154456 -11.69829,2.612211 -1.84005,0.457755 -5.08261,1.243657 -7.20574,1.74639 -5.16962,1.2242 -21.437681,5.637594 -23.6029,6.403298 -2.185607,0.772901 -1.864651,1.128662 0.475743,0.527337 0.972029,-0.249753 2.346366,-0.54771 3.054067,-0.662139 0.707702,-0.114427 2.328995,-0.475509 3.602877,-0.802391 1.273862,-0.326836 3.358371,-0.799686 4.632252,-1.050748 1.273863,-0.251061 3.01096,-0.596395 3.860201,-0.767448 0.849242,-0.17101 1.77569,-0.356589 2.05877,-0.412386 6.1983,-1.221408 22.55828,-3.552326 23.51169,-3.349864 1.26709,0.269121 1.65384,1.510641 0.66203,2.125315 -0.46476,0.288055 -4.47268,1.244354 -8.9065,2.125098 -9.70589,1.928042 -21.291315,4.460159 -22.870492,4.998577 -2.027201,0.691192 0.302767,0.499679 4.860495,-0.39956 2.357787,-0.465171 5.560747,-0.967162 7.117687,-1.115574 1.55696,-0.148409 3.17823,-0.352402 3.60287,-0.453262 1.44873,-0.344201 12.15383,-1.537907 14.41145,-1.607053 2.32339,-0.07111 3.68643,0.208659 3.96,0.812906 0.46457,1.026186 -0.89381,1.706604 -4.61267,2.310503 -9.34385,1.517315 -23.508397,4.876384 -24.703844,5.858423 -0.349552,0.287139 -1.040893,0.452083 -1.536284,0.366492 z m 7.194999,-9.952701 c -0.171,-0.144964 -0.61495,-0.160446 -0.98651,-0.03446 -0.41057,0.139243 -0.28862,0.242641 0.31098,0.263581 0.54256,0.01876 0.84656,-0.08419 0.67553,-0.229162 z M 77.312477,77.98584 c 0.479265,0 1.014593,-0.316323 1.189631,-0.702927 0.244155,-0.539333 0.107186,-0.629332 -0.588299,-0.386777 -0.4986,0.173889 -1.311873,0.414959 -1.807264,0.535713 -0.495391,0.120709 -0.900714,0.530347 -0.900714,0.910232 0,0.537239 0.137338,0.574408 0.617634,0.167257 0.339688,-0.287924 1.009748,-0.523498 1.489012,-0.523498 z"
       id="path960"
       sodipodi:nodetypes="ssssssscsccsscsssssscscsccsscsccsscsssscsssssssccsssssssssscssssscscssscsssssssssscsssssssscsssssssssssssssssssssssssssssssssssssssssssscsscccccscscsssscssssssssssscsssssssscssscsscsscssscscccscsssccssssscscccssscsss" />
    <path
       d="m 51.645201,137.13047 c -0.0994,-0.0994 -0.18076,-1.53012 -0.18076,-3.17937 v -2.9986 h 0.79375 0.79375 v 2.24896 2.24895 h 6.23448 6.23447 l -0.0829,0.8599 -0.0829,0.8599 -6.76456,0.0705 c -3.7205,0.0388 -6.84589,-0.0108 -6.94531,-0.11026 z m 19.66299,-0.15651 c 0,-0.73228 11.79073,-35.65458 12.03706,-35.65189 0.14634,0.002 2.93485,7.94902 6.19669,17.66094 3.26185,9.7119 5.98325,17.80686 6.04758,17.98876 0.0812,0.2295 -0.21208,0.33073 -0.95816,0.33073 h -1.07512 l -4.86526,-14.75052 c -2.6759,-8.11279 -4.97743,-15.16702 -5.11451,-15.67607 -0.23306,-0.86542 -0.42611,-0.38413 -2.97143,7.40833 -1.49719,4.58363 -3.80539,11.63787 -5.12934,15.67607 l -2.40716,7.34219 h -0.88018 c -0.52462,0 -0.88017,-0.13272 -0.88017,-0.32854 z m 12.2099,-0.13448 c -0.19977,-0.37889 -2.6849,-9.40547 -2.6849,-9.75223 0,-0.0569 0.40062,-0.1035 0.89026,-0.1035 h 0.89027 l 1.26489,4.69635 c 0.69569,2.583 1.32099,4.90472 1.38956,5.15938 0.099,0.36777 -0.0431,0.46302 -0.69064,0.46302 -0.50708,0 -0.9076,-0.17505 -1.05944,-0.46302 z m 17.864409,0.28662 c -0.097,-0.097 -0.17639,-2.53778 -0.17639,-5.42396 v -5.24756 l 1.78594,-0.005 c 6.89138,-0.0201 10.72089,-2.48031 12.1419,-7.79997 0.459,-1.7183 0.45366,-6.23795 -0.009,-7.97714 -0.86685,-3.25564 -3.1031,-5.913 -5.86202,-6.96588 -1.21005,-0.46179 -2.32373,-0.632 -4.81526,-0.73593 l -3.24114,-0.1352 v -0.75803 -0.75803 l 2.71197,0.004 c 4.77529,0.007 7.64464,1.0543 10.02592,3.65979 2.42139,2.6494 3.40369,5.46343 3.39855,9.73595 -0.005,4.13128 -1.03805,7.08393 -3.36945,9.63032 -2.24507,2.45211 -5.32174,3.67742 -9.26127,3.68834 l -1.65364,0.005 v 4.6302 4.63021 h -0.74965 c -0.41231,0 -0.82903,-0.0794 -0.92604,-0.1764 z m 21.78403,-17.81527 v -17.99167 h 0.66146 0.66145 v 17.99167 17.99167 h -0.66145 -0.66146 z m 12.08934,17.80069 c -0.65389,-0.0983 -0.73318,-0.21061 -0.66146,-0.93668 l 0.0815,-0.82494 1.62987,0.068 c 2.08085,0.0868 3.53112,-0.35309 4.83034,-1.46518 0.68753,-0.58849 1.30536,-0.88355 1.85008,-0.88355 0.96424,0 0.98129,0.07 0.28982,1.18874 -1.30413,2.11013 -4.76794,3.34256 -8.02014,2.85361 z m 7.7011,-7.58325 c 0.21572,-4.11006 -0.51562,-5.36821 -6.78518,-11.67265 -2.56435,-2.57862 -4.74073,-5.00597 -5.10039,-5.68854 -0.53252,-1.01063 -0.62737,-1.57063 -0.62737,-3.70417 0,-2.07034 0.10057,-2.70015 0.57035,-3.57187 1.13143,-2.09947 2.95603,-3.28151 5.40863,-3.5039 1.91466,-0.17362 3.70898,0.26418 5.3305,1.30058 1.38794,0.88711 1.51465,1.22646 0.72483,1.94124 -0.51538,0.46642 -0.55039,0.46454 -1.12448,-0.0603 -2.09426,-1.91469 -5.60297,-2.11449 -7.60147,-0.43286 -1.2565,1.05727 -1.64883,2.0546 -1.64883,4.19148 0,2.79875 0.49262,3.56373 5.45437,8.47004 4.31504,4.26683 5.60497,5.82838 6.51614,7.88821 0.59887,1.35387 0.92405,4.17484 0.67369,5.84438 -0.17385,1.15936 -0.22284,1.21637 -1.04481,1.21637 h -0.8624 z M 51.464441,114.81291 v -13.49375 h 0.79375 0.79375 v 13.49375 13.49375 h -0.79375 -0.79375 z"
       style="fill:#000000;stroke-width:0.264583"
       id="path1095" />
    <text
       xml:space="preserve"
       style="font-size:9.38605px;fill:#000000;stroke-width:0.782169"
       x="45.449207"
       y="172.38155"
       id="text613"
       transform="scale(0.94116627,1.0625115)"><tspan
         sodipodi:role="line"
         style="font-style:normal;font-variant:normal;font-weight:normal;font-stretch:normal;font-size:52.1447px;font-family:'Bradley Hand ITC';-inkscape-font-specification:'Bradley Hand ITC, Normal';font-variant-ligatures:normal;font-variant-caps:normal;font-variant-numeric:normal;font-variant-east-asian:normal;stroke-width:0.782169"
         x="45.449207"
         y="172.38155"
         id="tspan862">Lapis</tspan></text>
  </g>
</svg>
