<?xml version="1.0" encoding="UTF-8" standalone="no"?>
<svg
   id="svg2"
   version="1.1"
   viewBox="0 0 297 210"
   height="210mm"
   width="297mm"
   sodipodi:docname="Template.svg"
   inkscape:version="1.2.1 (9c6d41e410, 2022-07-14)"
   xmlns:inkscape="http://www.inkscape.org/namespaces/inkscape"
   xmlns:sodipodi="http://sodipodi.sourceforge.net/DTD/sodipodi-0.dtd"
   xmlns:xlink="http://www.w3.org/1999/xlink"
   xmlns="http://www.w3.org/2000/svg"
   xmlns:svg="http://www.w3.org/2000/svg"
   xmlns:rdf="http://www.w3.org/1999/02/22-rdf-syntax-ns#"
   xmlns:cc="http://creativecommons.org/ns#"
   xmlns:dc="http://purl.org/dc/elements/1.1/"
   xmlns:freecad="http://www.freecadweb.org/wiki/index.php?title=Svg_Namespace">
  <sodipodi:namedview
     id="namedview285"
     pagecolor="#ffffff"
     bordercolor="#000000"
     borderopacity="0.25"
     inkscape:showpageshadow="2"
     inkscape:pageopacity="0.0"
     inkscape:pagecheckerboard="0"
     inkscape:deskcolor="#d1d1d1"
     inkscape:document-units="mm"
     showgrid="false"
     inkscape:zoom="0.7622131"
     inkscape:cx="981.35285"
     inkscape:cy="680.91194"
     inkscape:window-width="2560"
     inkscape:window-height="1377"
     inkscape:window-x="-8"
     inkscape:window-y="-8"
     inkscape:window-maximized="1"
     inkscape:current-layer="svg2" />
  <!-- Working space 10 10 287 200 -->
  <!-- Title block 147 153 287 200 -->
  <metadata
     id="metadata849">
    <rdf:RDF>
      <cc:Work
         rdf:about="">
        <dc:format>image/svg+xml</dc:format>
        <dc:type
           rdf:resource="http://purl.org/dc/dcmitype/StillImage" />
      </cc:Work>
    </rdf:RDF>
  </metadata>
  <defs
     id="defs847">
    <linearGradient
       gradientUnits="userSpaceOnUse"
       id="defitem29"
       y2="485.909"
       x2="655.35199"
       y1="807.466"
       x1="649.42902">
      <stop
         id="stop92"
         offset="0.0000000"
         style="stop-color:#ffffff;stop-opacity:1.0000000;" />
      <stop
         id="stop93"
         offset="1.0000000"
         style="stop-color:#ffffff;stop-opacity:0.13756600;" />
    </linearGradient>
    <radialGradient
       gradientUnits="userSpaceOnUse"
       id="defitem28"
       fy="345.56"
       fx="1049.72"
       r="1202.15"
       cy="345.56"
       cx="1049.72">
      <stop
         id="stop89"
         offset="0.0000000"
         style="stop-color:#ffffff;stop-opacity:1.0000000;" />
      <stop
         id="stop90"
         offset="1.0000000"
         style="stop-color:#a8a8a8;stop-opacity:1.0000000;" />
    </radialGradient>
    <linearGradient
       gradientUnits="userSpaceOnUse"
       id="defitem30"
       y2="636.70697"
       x2="980"
       y1="636.70697"
       x1="287.5">
      <stop
         id="stop95"
         offset="0.0000000"
         style="stop-color:#464646;stop-opacity:1.0000000;" />
      <stop
         id="stop96"
         offset="1.0000000"
         style="stop-color:#c2c2c2;stop-opacity:1.0000000;" />
    </linearGradient>
    <linearGradient
       gradientUnits="userSpaceOnUse"
       id="defitem27"
       y2="317.44699"
       x2="985.98199"
       y1="403.18799"
       x1="921.091">
      <stop
         id="stop86"
         offset="0.0000000"
         style="stop-color:#7e7e7e;stop-opacity:1.0000000;" />
      <stop
         id="stop87"
         offset="1.0000000"
         style="stop-color:#e5e5e5;stop-opacity:1.0000000;" />
    </linearGradient>
    <linearGradient
       gradientUnits="userSpaceOnUse"
       id="defitem26"
       y2="360.27499"
       x2="293.37"
       y1="346.30399"
       x1="530.76099">
      <stop
         id="stop83"
         offset="0.0000000"
         style="stop-color:#5f5f5f;stop-opacity:1.0000000;" />
      <stop
         id="stop84"
         offset="1.0000000"
         style="stop-color:#e5e5e5;stop-opacity:1.0000000;" />
    </linearGradient>
    <linearGradient
       gradientUnits="userSpaceOnUse"
       id="defitem25"
       y2="337.60999"
       x2="308.75"
       y1="412.91901"
       x1="164.013">
      <stop
         id="stop80"
         offset="0.0000000"
         style="stop-color:#ffffff;stop-opacity:1.0000000;" />
      <stop
         id="stop81"
         offset="1.0000000"
         style="stop-color:#bfbfbf;stop-opacity:1.0000000;" />
    </linearGradient>
    <linearGradient
       gradientUnits="userSpaceOnUse"
       id="defitem24"
       y2="380.47198"
       x2="992.48901"
       y1="270.854"
       x1="1094.25">
      <stop
         id="stop77"
         offset="0.0000000"
         style="stop-color:#6a6a6a;stop-opacity:1.0000000;" />
      <stop
         id="stop78"
         offset="1.0000000"
         style="stop-color:#e6e6e6;stop-opacity:1.0000000;" />
    </linearGradient>
    <linearGradient
       gradientUnits="userSpaceOnUse"
       id="defitem23"
       y2="549.37799"
       x2="1049.84"
       y1="476.465"
       x1="1170.91">
      <stop
         id="stop74"
         offset="0.0000000"
         style="stop-color:#5f5f5f;stop-opacity:1.0000000;" />
      <stop
         id="stop75"
         offset="1.0000000"
         style="stop-color:#ebebeb;stop-opacity:1.0000000;" />
    </linearGradient>
    <linearGradient
       gradientUnits="userSpaceOnUse"
       id="defitem22"
       y2="313.276"
       x2="576.14899"
       y1="105.486"
       x1="783.716">
      <stop
         id="stop71"
         offset="0.0000000"
         style="stop-color:#5a5a5a;stop-opacity:1.0000000;" />
      <stop
         id="stop72"
         offset="1.0000000"
         style="stop-color:#c7c7c7;stop-opacity:1.0000000;" />
    </linearGradient>
    <linearGradient
       gradientUnits="userSpaceOnUse"
       id="defitem21"
       y2="484.716"
       x2="128.05499"
       y1="418.698"
       x1="280.04401">
      <stop
         id="stop68"
         offset="0.0000000"
         style="stop-color:#666666;stop-opacity:1.0000000;" />
      <stop
         id="stop69"
         offset="1.0000000"
         style="stop-color:#d8d8d8;stop-opacity:1.0000000;" />
    </linearGradient>
    <linearGradient
       gradientUnits="userSpaceOnUse"
       id="defitem20"
       y2="584.40997"
       x2="220"
       y1="636.95398"
       x1="129.687">
      <stop
         id="stop65"
         offset="0.0000000"
         style="stop-color:#ffffff;stop-opacity:1.0000000;" />
      <stop
         id="stop66"
         offset="1.0000000"
         style="stop-color:#bbbbbb;stop-opacity:1.0000000;" />
    </linearGradient>
    <linearGradient
       gradientUnits="userSpaceOnUse"
       id="defitem19"
       y2="583.75299"
       x2="1127.98"
       y1="629.02802"
       x1="1048.72">
      <stop
         id="stop62"
         offset="0.0000000"
         style="stop-color:#5e5e5e;stop-opacity:1.0000000;" />
      <stop
         id="stop63"
         offset="1.0000000"
         style="stop-color:#ededed;stop-opacity:1.0000000;" />
    </linearGradient>
    <linearGradient
       gradientUnits="userSpaceOnUse"
       id="defitem18"
       y2="291.97699"
       x2="581.32397"
       y1="387.27301"
       x1="370.022">
      <stop
         id="stop59"
         offset="0.0000000"
         style="stop-color:#636363;stop-opacity:1.0000000;" />
      <stop
         id="stop60"
         offset="1.0000000"
         style="stop-color:#d6d6d6;stop-opacity:1.0000000;" />
    </linearGradient>
    <linearGradient
       gradientUnits="userSpaceOnUse"
       id="defitem17"
       y2="351.939"
       x2="909.59399"
       y1="351.939"
       x1="732.15601">
      <stop
         id="stop56"
         offset="0.0000000"
         style="stop-color:#676767;stop-opacity:1.0000000;" />
      <stop
         id="stop57"
         offset="1.0000000"
         style="stop-color:#d3d3d3;stop-opacity:1.0000000;" />
    </linearGradient>
    <linearGradient
       gradientUnits="userSpaceOnUse"
       id="defitem16"
       y2="494.71301"
       x2="1073.01"
       y1="494.71301"
       x1="1014.43">
      <stop
         id="stop53"
         offset="0.0000000"
         style="stop-color:#666666;stop-opacity:1.0000000;" />
      <stop
         id="stop54"
         offset="1.0000000"
         style="stop-color:#dcdcdc;stop-opacity:1.0000000;" />
    </linearGradient>
    <linearGradient
       gradientUnits="userSpaceOnUse"
       id="defitem15"
       y2="516.37"
       x2="193.27699"
       y1="452.388"
       x1="272.59201">
      <stop
         id="stop50"
         offset="0.0000000"
         style="stop-color:#6e6e6e;stop-opacity:1.0000000;" />
      <stop
         id="stop51"
         offset="1.0000000"
         style="stop-color:#d8d8d8;stop-opacity:1.0000000;" />
    </linearGradient>
    <radialGradient
       gradientUnits="userSpaceOnUse"
       id="defitem14"
       fy="211.088"
       fx="1037.22"
       r="1164.28"
       cy="211.088"
       cx="1037.22">
      <stop
         id="stop47"
         offset="0.0000000"
         style="stop-color:#ffffff;stop-opacity:1.0000000;" />
      <stop
         id="stop48"
         offset="1.0000000"
         style="stop-color:#aaaaaa;stop-opacity:1.0000000;" />
    </radialGradient>
    <linearGradient
       gradientUnits="userSpaceOnUse"
       id="defitem13"
       y2="686.83002"
       x2="379.241"
       y1="732.12903"
       x1="342.64999">
      <stop
         id="stop44"
         offset="0.0000000"
         style="stop-color:#ffffff;stop-opacity:1.0000000;" />
      <stop
         id="stop45"
         offset="1.0000000"
         style="stop-color:#989898;stop-opacity:1.0000000;" />
    </linearGradient>
    <radialGradient
       gradientUnits="userSpaceOnUse"
       id="defitem12"
       fy="484.409"
       fx="632.78101"
       r="540.27899"
       cy="484.409"
       cx="632.78101">
      <stop
         id="stop41"
         offset="0.0000000"
         style="stop-color:#ffffff;stop-opacity:1.0000000;" />
      <stop
         id="stop42"
         offset="1.0000000"
         style="stop-color:#ededed;stop-opacity:1.0000000;" />
    </radialGradient>
    <radialGradient
       r="540.27899"
       fy="484.409"
       fx="632.78101"
       cy="484.409"
       cx="632.78101"
       gradientUnits="userSpaceOnUse"
       id="radialGradient3901"
       xlink:href="#defitem12" />
    <linearGradient
       y2="686.83002"
       x2="379.241"
       y1="732.12903"
       x1="342.64999"
       gradientUnits="userSpaceOnUse"
       id="linearGradient3903"
       xlink:href="#defitem13" />
    <radialGradient
       r="1164.28"
       fy="211.088"
       fx="1037.22"
       cy="211.088"
       cx="1037.22"
       gradientUnits="userSpaceOnUse"
       id="radialGradient3905"
       xlink:href="#defitem14" />
    <linearGradient
       y2="516.37"
       x2="193.27699"
       y1="452.388"
       x1="272.59201"
       gradientUnits="userSpaceOnUse"
       id="linearGradient3907"
       xlink:href="#defitem15" />
    <linearGradient
       y2="494.71301"
       x2="1073.01"
       y1="494.71301"
       x1="1014.43"
       gradientUnits="userSpaceOnUse"
       id="linearGradient3909"
       xlink:href="#defitem16" />
    <linearGradient
       y2="351.939"
       x2="909.59399"
       y1="351.939"
       x1="732.15601"
       gradientUnits="userSpaceOnUse"
       id="linearGradient3911"
       xlink:href="#defitem17" />
    <linearGradient
       y2="291.97699"
       x2="581.32397"
       y1="387.27301"
       x1="370.022"
       gradientUnits="userSpaceOnUse"
       id="linearGradient3913"
       xlink:href="#defitem18" />
    <linearGradient
       y2="583.75299"
       x2="1127.98"
       y1="629.02802"
       x1="1048.72"
       gradientUnits="userSpaceOnUse"
       id="linearGradient3915"
       xlink:href="#defitem19" />
    <linearGradient
       y2="584.40997"
       x2="220"
       y1="636.95398"
       x1="129.687"
       gradientUnits="userSpaceOnUse"
       id="linearGradient3917"
       xlink:href="#defitem20" />
    <linearGradient
       y2="484.716"
       x2="128.05499"
       y1="418.698"
       x1="280.04401"
       gradientUnits="userSpaceOnUse"
       id="linearGradient3919"
       xlink:href="#defitem21" />
    <linearGradient
       y2="313.276"
       x2="576.14899"
       y1="105.486"
       x1="783.716"
       gradientUnits="userSpaceOnUse"
       id="linearGradient3921"
       xlink:href="#defitem22" />
    <linearGradient
       y2="549.37799"
       x2="1049.84"
       y1="476.465"
       x1="1170.91"
       gradientUnits="userSpaceOnUse"
       id="linearGradient3923"
       xlink:href="#defitem23" />
    <linearGradient
       y2="380.47198"
       x2="992.48901"
       y1="270.854"
       x1="1094.25"
       gradientUnits="userSpaceOnUse"
       id="linearGradient3925"
       xlink:href="#defitem24" />
    <linearGradient
       y2="337.60999"
       x2="308.75"
       y1="412.91901"
       x1="164.013"
       gradientUnits="userSpaceOnUse"
       id="linearGradient3927"
       xlink:href="#defitem25" />
    <linearGradient
       y2="360.27499"
       x2="293.37"
       y1="346.30399"
       x1="530.76099"
       gradientUnits="userSpaceOnUse"
       id="linearGradient3929"
       xlink:href="#defitem26" />
    <linearGradient
       y2="317.44699"
       x2="985.98199"
       y1="403.18799"
       x1="921.091"
       gradientUnits="userSpaceOnUse"
       id="linearGradient3931"
       xlink:href="#defitem27" />
    <linearGradient
       y2="636.70697"
       x2="980"
       y1="636.70697"
       x1="287.5"
       gradientTransform="matrix(1,0,0,1.016038,0,-11.73855)"
       gradientUnits="userSpaceOnUse"
       id="linearGradient3933"
       xlink:href="#defitem30" />
    <radialGradient
       r="1202.15"
       fy="64.844765"
       fx="1089.4004"
       cy="64.845284"
       cx="1092.7045"
       gradientUnits="userSpaceOnUse"
       id="radialGradient3935"
       xlink:href="#defitem28" />
    <linearGradient
       y2="485.909"
       x2="655.35199"
       y1="807.466"
       x1="649.42902"
       gradientUnits="userSpaceOnUse"
       id="linearGradient3937"
       xlink:href="#defitem29" />
    <radialGradient
       r="540.27899"
       fy="484.409"
       fx="632.78101"
       cy="484.409"
       cx="632.78101"
       gradientUnits="userSpaceOnUse"
       id="radialGradient4283"
       xlink:href="#defitem12" />
    <linearGradient
       y2="686.83002"
       x2="379.241"
       y1="732.12903"
       x1="342.64999"
       gradientUnits="userSpaceOnUse"
       id="linearGradient4285"
       xlink:href="#defitem13" />
    <radialGradient
       r="1164.28"
       fy="211.088"
       fx="1037.22"
       cy="211.088"
       cx="1037.22"
       gradientUnits="userSpaceOnUse"
       id="radialGradient4287"
       xlink:href="#defitem14" />
    <linearGradient
       y2="516.37"
       x2="193.27699"
       y1="452.388"
       x1="272.59201"
       gradientUnits="userSpaceOnUse"
       id="linearGradient4289"
       xlink:href="#defitem15" />
    <linearGradient
       y2="494.71301"
       x2="1073.01"
       y1="494.71301"
       x1="1014.43"
       gradientUnits="userSpaceOnUse"
       id="linearGradient4291"
       xlink:href="#defitem16" />
    <linearGradient
       y2="351.939"
       x2="909.59399"
       y1="351.939"
       x1="732.15601"
       gradientUnits="userSpaceOnUse"
       id="linearGradient4293"
       xlink:href="#defitem17" />
    <linearGradient
       y2="291.97699"
       x2="581.32397"
       y1="387.27301"
       x1="370.022"
       gradientUnits="userSpaceOnUse"
       id="linearGradient4295"
       xlink:href="#defitem18" />
    <linearGradient
       y2="583.75299"
       x2="1127.98"
       y1="629.02802"
       x1="1048.72"
       gradientUnits="userSpaceOnUse"
       id="linearGradient4297"
       xlink:href="#defitem19" />
    <linearGradient
       y2="584.40997"
       x2="220"
       y1="636.95398"
       x1="129.687"
       gradientUnits="userSpaceOnUse"
       id="linearGradient4299"
       xlink:href="#defitem20" />
    <linearGradient
       y2="484.716"
       x2="128.05499"
       y1="418.698"
       x1="280.04401"
       gradientUnits="userSpaceOnUse"
       id="linearGradient4301"
       xlink:href="#defitem21" />
    <linearGradient
       y2="313.276"
       x2="576.14899"
       y1="105.486"
       x1="783.716"
       gradientUnits="userSpaceOnUse"
       id="linearGradient4303"
       xlink:href="#defitem22" />
    <linearGradient
       y2="549.37799"
       x2="1049.84"
       y1="476.465"
       x1="1170.91"
       gradientUnits="userSpaceOnUse"
       id="linearGradient4305"
       xlink:href="#defitem23" />
    <linearGradient
       y2="380.47198"
       x2="992.48901"
       y1="270.854"
       x1="1094.25"
       gradientUnits="userSpaceOnUse"
       id="linearGradient4307"
       xlink:href="#defitem24" />
    <linearGradient
       y2="337.60999"
       x2="308.75"
       y1="412.91901"
       x1="164.013"
       gradientUnits="userSpaceOnUse"
       id="linearGradient4309"
       xlink:href="#defitem25" />
    <linearGradient
       y2="360.27499"
       x2="293.37"
       y1="346.30399"
       x1="530.76099"
       gradientUnits="userSpaceOnUse"
       id="linearGradient4311"
       xlink:href="#defitem26" />
    <linearGradient
       y2="317.44699"
       x2="985.98199"
       y1="403.18799"
       x1="921.091"
       gradientUnits="userSpaceOnUse"
       id="linearGradient4313"
       xlink:href="#defitem27" />
    <linearGradient
       y2="636.70697"
       x2="980"
       y1="636.70697"
       x1="287.5"
       gradientTransform="matrix(1,0,0,1.016038,0,-11.73855)"
       gradientUnits="userSpaceOnUse"
       id="linearGradient4315"
       xlink:href="#defitem30" />
    <radialGradient
       r="1202.15"
       fy="64.844765"
       fx="1089.4004"
       cy="64.845284"
       cx="1092.7045"
       gradientUnits="userSpaceOnUse"
       id="radialGradient4317"
       xlink:href="#defitem28" />
    <linearGradient
       y2="485.909"
       x2="655.35199"
       y1="807.466"
       x1="649.42902"
       gradientUnits="userSpaceOnUse"
       id="linearGradient4319"
       xlink:href="#defitem29" />
    <radialGradient
       r="540.27899"
       fy="484.409"
       fx="632.78101"
       cy="484.409"
       cx="632.78101"
       gradientUnits="userSpaceOnUse"
       id="radialGradient4515"
       xlink:href="#defitem12" />
    <linearGradient
       y2="686.83002"
       x2="379.241"
       y1="732.12903"
       x1="342.64999"
       gradientUnits="userSpaceOnUse"
       id="linearGradient4517"
       xlink:href="#defitem13" />
    <radialGradient
       r="1164.28"
       fy="211.088"
       fx="1037.22"
       cy="211.088"
       cx="1037.22"
       gradientUnits="userSpaceOnUse"
       id="radialGradient4519"
       xlink:href="#defitem14" />
    <linearGradient
       y2="516.37"
       x2="193.27699"
       y1="452.388"
       x1="272.59201"
       gradientUnits="userSpaceOnUse"
       id="linearGradient4521"
       xlink:href="#defitem15" />
    <linearGradient
       y2="494.71301"
       x2="1073.01"
       y1="494.71301"
       x1="1014.43"
       gradientUnits="userSpaceOnUse"
       id="linearGradient4523"
       xlink:href="#defitem16" />
    <linearGradient
       y2="351.939"
       x2="909.59399"
       y1="351.939"
       x1="732.15601"
       gradientUnits="userSpaceOnUse"
       id="linearGradient4525"
       xlink:href="#defitem17" />
    <linearGradient
       y2="291.97699"
       x2="581.32397"
       y1="387.27301"
       x1="370.022"
       gradientUnits="userSpaceOnUse"
       id="linearGradient4527"
       xlink:href="#defitem18" />
    <linearGradient
       y2="583.75299"
       x2="1127.98"
       y1="629.02802"
       x1="1048.72"
       gradientUnits="userSpaceOnUse"
       id="linearGradient4529"
       xlink:href="#defitem19" />
    <linearGradient
       y2="584.40997"
       x2="220"
       y1="636.95398"
       x1="129.687"
       gradientUnits="userSpaceOnUse"
       id="linearGradient4531"
       xlink:href="#defitem20" />
    <linearGradient
       y2="484.716"
       x2="128.05499"
       y1="418.698"
       x1="280.04401"
       gradientUnits="userSpaceOnUse"
       id="linearGradient4533"
       xlink:href="#defitem21" />
    <linearGradient
       y2="313.276"
       x2="576.14899"
       y1="105.486"
       x1="783.716"
       gradientUnits="userSpaceOnUse"
       id="linearGradient4535"
       xlink:href="#defitem22" />
    <linearGradient
       y2="549.37799"
       x2="1049.84"
       y1="476.465"
       x1="1170.91"
       gradientUnits="userSpaceOnUse"
       id="linearGradient4537"
       xlink:href="#defitem23" />
    <linearGradient
       y2="380.47198"
       x2="992.48901"
       y1="270.854"
       x1="1094.25"
       gradientUnits="userSpaceOnUse"
       id="linearGradient4539"
       xlink:href="#defitem24" />
    <linearGradient
       y2="337.60999"
       x2="308.75"
       y1="412.91901"
       x1="164.013"
       gradientUnits="userSpaceOnUse"
       id="linearGradient4541"
       xlink:href="#defitem25" />
    <linearGradient
       y2="360.27499"
       x2="293.37"
       y1="346.30399"
       x1="530.76099"
       gradientUnits="userSpaceOnUse"
       id="linearGradient4543"
       xlink:href="#defitem26" />
    <linearGradient
       y2="317.44699"
       x2="985.98199"
       y1="403.18799"
       x1="921.091"
       gradientUnits="userSpaceOnUse"
       id="linearGradient4545"
       xlink:href="#defitem27" />
    <linearGradient
       y2="636.70697"
       x2="980"
       y1="636.70697"
       x1="287.5"
       gradientTransform="matrix(1,0,0,1.016038,0,-11.73855)"
       gradientUnits="userSpaceOnUse"
       id="linearGradient4547"
       xlink:href="#defitem30" />
    <radialGradient
       r="1202.15"
       fy="64.844765"
       fx="1089.4004"
       cy="64.845284"
       cx="1092.7045"
       gradientUnits="userSpaceOnUse"
       id="radialGradient4549"
       xlink:href="#defitem28" />
    <linearGradient
       y2="485.909"
       x2="655.35199"
       y1="807.466"
       x1="649.42902"
       gradientUnits="userSpaceOnUse"
       id="linearGradient4551"
       xlink:href="#defitem29" />
    <radialGradient
       xlink:href="#linearGradient3682"
       id="radialGradient3817"
       gradientUnits="userSpaceOnUse"
       gradientTransform="matrix(1.1149219,0.2722306,-0.7507171,3.0745639,-471.08629,-148.32863)"
       cx="270.58316"
       cy="33.899986"
       fx="270.58316"
       fy="33.899986"
       r="19.571428" />
    <linearGradient
       id="linearGradient3682">
      <stop
         style="stop-color:#ff6d0f;stop-opacity:1;"
         offset="0"
         id="stop3684" />
      <stop
         style="stop-color:#ff1000;stop-opacity:1;"
         offset="1"
         id="stop3686" />
    </linearGradient>
    <radialGradient
       xlink:href="#linearGradient3864"
       id="radialGradient3661"
       gradientUnits="userSpaceOnUse"
       gradientTransform="matrix(0.6186598,0.9666542,-1.0332462,0.6612786,-327.27568,-255.84136)"
       cx="282.64584"
       cy="29.149046"
       fx="282.64584"
       fy="29.149046"
       r="19.571428" />
    <linearGradient
       id="linearGradient3864">
      <stop
         id="stop3866"
         offset="0"
         style="stop-color:#71b2f8;stop-opacity:1;" />
      <stop
         id="stop3868"
         offset="1"
         style="stop-color:#002795;stop-opacity:1;" />
    </linearGradient>
  </defs>
  <path
     d="M 9.9955525,200 286.70447,200"
     id="path6"
     style="fill:none;stroke:#000000;stroke-width:0.35;stroke-linecap:butt;stroke-linejoin:miter" />
  <path
     d="m 287.14484,199.85485 0,-190.1599269"
     id="path8"
     style="fill:none;stroke:#000000;stroke-width:0.35;stroke-linecap:butt;stroke-linejoin:miter" />
  <path
     d="m 287.20428,9.8544347 -277.058557,0"
     id="path10"
     style="fill:none;stroke:#000000;stroke-width:0.35;stroke-linecap:butt;stroke-linejoin:miter" />
  <path
     d="m 10.144844,9.7049456 0,190.1500244"
     id="path12"
     style="fill:none;stroke:#000000;stroke-width:0.35;stroke-linecap:butt;stroke-linejoin:miter" />
  <path
     d="m 148.64755,9.8574405 0,-9.71488097"
     id="path14"
     style="fill:none;stroke:#000000;stroke-width:0.35;stroke-linecap:butt;stroke-linejoin:miter" />
  <path
     d="m 10.169135,104.82798 -9.99413672,0"
     id="path18"
     style="fill:none;stroke:#000000;stroke-width:0.35;stroke-linecap:butt;stroke-linejoin:miter" />
  <path
     d="m 102.48055,9.8524509 0,-7.541176"
     id="path32"
     style="fill:none;stroke:#000000;stroke-width:0.35;stroke-linecap:butt;stroke-linejoin:miter" />
  <path
     d="m 194.81455,9.8524509 0,-7.541176"
     id="path34"
     style="fill:none;stroke:#000000;stroke-width:0.35;stroke-linecap:butt;stroke-linejoin:miter" />
  <path
     d="m 56.314549,9.8524509 0,-7.541176"
     id="path36"
     style="fill:none;stroke:#000000;stroke-width:0.35;stroke-linecap:butt;stroke-linejoin:miter" />
  <path
     d="m 240.98055,9.8524509 0,-7.541176"
     id="path38"
     style="fill:none;stroke:#000000;stroke-width:0.35;stroke-linecap:butt;stroke-linejoin:miter" />
  <path
     d="m 10,57.325 -7.5,0"
     id="path42"
     style="fill:none;stroke:#000000;stroke-width:0.35;stroke-linecap:butt;stroke-linejoin:miter" />
  <path
     d="m 10,152.325 -7.5,0"
     id="path44"
     style="fill:none;stroke:#000000;stroke-width:0.35;stroke-linecap:butt;stroke-linejoin:miter" />
  <path
     d="m 137.15173,202.5 150.04653,0"
     id="path50"
     style="fill:none;stroke:#000000;stroke-width:0.35;stroke-linecap:butt;stroke-linejoin:miter" />
  <path
     d="m 187.175,200 0,5"
     id="path52"
     style="fill:none;stroke:#000000;stroke-width:0.35;stroke-linecap:butt;stroke-linejoin:miter" />
  <path
     d="m 237.175,200 0,5"
     id="path54"
     style="fill:none;stroke:#000000;stroke-width:0.35;stroke-linecap:butt;stroke-linejoin:miter" />
  <path
     d="m 257.175,200 0,2.5"
     id="path58"
     style="fill:none;stroke:#000000;stroke-width:0.35;stroke-linecap:butt;stroke-linejoin:miter" />
  <path
     d="m 247.175,200 0,2.5"
     id="path62"
     style="fill:none;stroke:#000000;stroke-width:0.35;stroke-linecap:butt;stroke-linejoin:miter" />
  <path
     d="m 227.175,200 0,2.5"
     id="path66"
     style="fill:none;stroke:#000000;stroke-width:0.35;stroke-linecap:butt;stroke-linejoin:miter" />
  <path
     d="m 207.175,200 0,2.5"
     id="path68"
     style="fill:none;stroke:#000000;stroke-width:0.35;stroke-linecap:butt;stroke-linejoin:miter" />
  <path
     d="m 217.175,200 0,2.5"
     id="path70"
     style="fill:none;stroke:#000000;stroke-width:0.35;stroke-linecap:butt;stroke-linejoin:miter" />
  <path
     d="m 137.175,200 0,5"
     id="path72"
     style="fill:none;stroke:#000000;stroke-width:0.35;stroke-linecap:butt;stroke-linejoin:miter" />
  <path
     d="m 287.125,200 0,5"
     id="path74"
     style="fill:none;stroke:#000000;stroke-width:0.35;stroke-linecap:butt;stroke-linejoin:miter" />
  <path
     d="m 177.175,200 0,2.5"
     id="path78"
     style="fill:none;stroke:#000000;stroke-width:0.35;stroke-linecap:butt;stroke-linejoin:miter" />
  <path
     d="m 167.175,200 0,2.5"
     id="path80"
     style="fill:none;stroke:#000000;stroke-width:0.35;stroke-linecap:butt;stroke-linejoin:miter" />
  <path
     d="m 197.175,200 0,2.5"
     id="path82"
     style="fill:none;stroke:#000000;stroke-width:0.35;stroke-linecap:butt;stroke-linejoin:miter" />
  <path
     d="m 147.175,200 0,2.5"
     id="path84"
     style="fill:none;stroke:#000000;stroke-width:0.35;stroke-linecap:butt;stroke-linejoin:miter" />
  <path
     d="m 277.175,200 0,2.5"
     id="path86"
     style="fill:none;stroke:#000000;stroke-width:0.35;stroke-linecap:butt;stroke-linejoin:miter" />
  <path
     d="m 157.175,200 0,2.5"
     id="path88"
     style="fill:none;stroke:#000000;stroke-width:0.35;stroke-linecap:butt;stroke-linejoin:miter" />
  <path
     d="m 267.175,200 0,2.5"
     id="path90"
     style="fill:none;stroke:#000000;stroke-width:0.35;stroke-linecap:butt;stroke-linejoin:miter" />
  <g
     transform="translate(0,-87.000003)"
     style="fill:none;stroke:#000000;stroke-width:0.13;stroke-linecap:butt;stroke-linejoin:miter"
     id="g452" />
  <g
     transform="translate(-110.916,0.82999)"
     style="fill:none;stroke:#000000;stroke-width:0.13;stroke-linecap:butt;stroke-linejoin:miter"
     id="g470">
    <path
       style="fill:#000000;fill-rule:evenodd;stroke:none"
       id="path472"
       d="m 234.583,5.00504 0,1.16497 3.5,0 0,-1.16497 -0.111,-0.54972 -0.338,-0.40851 -0.549,-0.25216 -0.752,-0.09076 -0.766,0.08069 -0.303,0.10086 -0.242,0.1412 -0.328,0.40851 -0.081,0.2673 -0.03,0.30259 z m 0.419,0.0353 0.075,-0.3833 0.232,-0.26223 0.414,-0.15635 0.61,-0.05044 0.59,0.05548 0.414,0.15634 0.247,0.2673 0.081,0.3732 0,0.66065 -2.663,0 0,-0.66065 z" />
  </g>
  <g
     transform="translate(-104.583,0.94092)"
     style="fill:none;stroke:#000000;stroke-width:0.13;stroke-linecap:butt;stroke-linejoin:miter"
     id="g474">
    <path
       style="fill:#000000;fill-rule:evenodd;stroke:none"
       id="path476"
       d="m 185.583,6.05908 0,-2.21902 -0.423,0 0,1.75503 -1.186,0 0,-1.56341 -0.418,0 0,1.56341 -1.049,0 0,-1.71469 -0.424,0 0,2.17868 3.5,0 z" />
  </g>
  <g
     transform="translate(-117.154,0.7493)"
     style="fill:none;stroke:#000000;stroke-width:0.13;stroke-linecap:butt;stroke-linejoin:miter"
     id="g478">
    <path
       style="fill:#000000;fill-rule:evenodd;stroke:none"
       id="path480"
       d="m 289.282,4.18298 0.424,0.10086 0.302,0.16645 0.187,0.23196 0.06,0.27234 -0.09,0.32782 -0.273,0.2572 -0.444,0.17148 -0.615,0.05548 -0.61,-0.05548 -0.449,-0.16644 -0.272,-0.2572 -0.096,-0.33286 0.05,-0.24207 0.142,-0.20678 0.227,-0.16138 0.312,-0.11093 0,-0.47913 -0.479,0.15131 -0.363,0.26224 -0.227,0.35809 -0.081,0.42865 0.126,0.53461 0.353,0.40847 0.58,0.26227 0.787,0.09076 0.787,-0.09076 0.58,-0.26227 0.358,-0.40847 0.121,-0.53461 -0.096,-0.46902 -0.267,-0.37824 -0.439,-0.26727 -0.595,-0.14124 0,0.48416 z" />
  </g>
  <g
     transform="translate(-98.25,0.96616)"
     style="fill:none;stroke:#000000;stroke-width:0.13;stroke-linecap:butt;stroke-linejoin:miter"
     id="g482">
    <path
       style="fill:#000000;fill-rule:evenodd;stroke:none"
       id="path484"
       d="m 133.083,6.03384 0,-0.46902 -1.609,0 0,-1.47263 -0.418,0 0,1.47263 -1.049,0 0,-1.81052 -0.424,0 0,2.27954 3.5,0 z" />
  </g>
  <g
     transform="translate(-123.583,0.83502)"
     style="fill:none;stroke:#000000;stroke-width:0.13;stroke-linecap:butt;stroke-linejoin:miter"
     id="g486">
    <path
       style="fill:#000000;fill-rule:evenodd;stroke:none"
       id="path488"
       d="m 341.192,4.3696 -0.292,-0.35303 -0.197,-0.09079 -0.242,-0.03027 -0.379,0.06558 -0.272,0.19669 -0.166,0.31771 -0.061,0.44382 0,1.24567 3.5,0 0,-1.31629 -0.07,-0.46902 -0.207,-0.34799 -0.328,-0.21686 -0.444,-0.07565 -0.297,0.04541 -0.247,0.12103 -0.182,0.19668 -0.116,0.26731 z m -0.156,0.64551 0,0.68588 -1.034,0 0,-0.72623 0.03,-0.27231 0.091,-0.19165 0.156,-0.11599 0.232,-0.04035 0.232,0.04538 0.162,0.12103 0.1,0.20679 0.031,0.28745 z m 1.629,-0.11094 0,0.79682 -1.206,0 0,-0.75144 0.036,-0.31771 0.105,-0.22696 0.182,-0.13617 0.262,-0.04538 0.278,0.04538 0.191,0.1261 0.116,0.21182 0.036,0.29754 z" />
  </g>
  <g
     transform="translate(-129.911,0.46686)"
     style="fill:none;stroke:#000000;stroke-width:0.13;stroke-linecap:butt;stroke-linejoin:miter"
     id="g494">
    <path
       style="fill:#000000;fill-rule:evenodd;stroke:none"
       id="path496"
       d="m 395.583,6.53314 0,-0.46399 -1.029,-0.36816 0,-1.39697 1.029,-0.36817 0,-0.47406 -3.505,1.28101 0,0.5144 3.505,1.27594 z M 394.126,5.53961 392.582,5 l 1.544,-0.53964 0,1.07925 z" />
  </g>
  <g
     transform="translate(0,-30.221)"
     style="fill:none;stroke:#000000;stroke-width:0.13;stroke-linecap:butt;stroke-linejoin:miter"
     id="g502">
    <path
       style="fill:#000000;fill-rule:evenodd;stroke:none"
       id="path504"
       d="m 5.73379,112.671 0.0353,0 0.48415,-0.081 0.36311,-0.237 0.23199,-0.373 0.08574,-0.494 -0.08574,-0.525 -0.2219,-0.393 -0.35302,-0.252 -0.4539,-0.091 -0.29755,0.04 -0.24207,0.111 -0.1866,0.182 -0.13617,0.242 -0.27233,-0.328 -0.43372,-0.116 -0.39337,0.076 -0.29755,0.217 -0.1866,0.353 -0.06556,0.484 0.08069,0.454 0.2219,0.348 0.35303,0.227 0.46902,0.075 0.0353,0 0,-0.449 -0.32277,-0.04 -0.23199,-0.131 -0.14121,-0.212 -0.05043,-0.297 0.04035,-0.263 0.10591,-0.191 0.17147,-0.116 0.23198,-0.046 0.24712,0.046 0.16643,0.121 0.10086,0.211 0.03026,0.288 -0.00504,0.197 0.39841,0 -0.01008,-0.247 0.04539,-0.318 0.12103,-0.237 0.19669,-0.141 0.2572,-0.051 0.29251,0.056 0.21686,0.146 0.13617,0.232 0.04539,0.307 -0.05044,0.318 -0.15129,0.232 -0.24208,0.146 -0.33285,0.056 0,0.464 z" />
  </g>
  <g
     transform="translate(0,-56.881)"
     style="fill:none;stroke:#000000;stroke-width:0.13;stroke-linecap:butt;stroke-linejoin:miter"
     id="g506">
    <path
       style="fill:#000000;fill-rule:evenodd;stroke:none"
       id="path508"
       d="m 6.83321,186.831 0,-2.406 -0.43371,0 0,1.901 -0.23704,-0.106 -0.19668,-0.181 -0.35807,-0.56 -0.1513,-0.298 -0.21686,-0.332 -0.25216,-0.237 -0.29755,-0.137 -0.3379,-0.05 -0.42363,0.086 -0.33285,0.237 -0.21182,0.363 -0.07565,0.469 0.08574,0.484 0.23703,0.368 0.37824,0.237 0.49928,0.081 0.07061,0 0,-0.459 -0.04035,0 -0.34294,-0.045 -0.25216,-0.137 -0.16138,-0.216 -0.05548,-0.288 0.05043,-0.292 0.12608,-0.217 0.19669,-0.142 0.24712,-0.05 0.23199,0.035 0.19668,0.096 0.17147,0.162 0.1513,0.221 0.16138,0.298 0.31268,0.494 0.33286,0.348 0.40346,0.207 0.50936,0.066 0.01513,0 z" />
  </g>
  <g
     transform="translate(0,-3.5108)"
     style="fill:none;stroke:#000000;stroke-width:0.13;stroke-linecap:butt;stroke-linejoin:miter"
     id="g518">
    <path
       style="fill:#000000;fill-rule:evenodd;stroke:none"
       id="path520"
       d="m 6.83321,36.9226 0,-0.4539 -0.86743,0 0,-0.4992 -0.40346,0 0,0.4992 -2.15347,0 0,0.459 2.11312,1.5331 0.44381,0 0,-1.5382 0.86743,0 z m -1.27089,1.1146 -1.56845,-1.1146 1.56845,0 0,1.1146 z" />
  </g>
  <g
     transform="translate(0,-83.82)"
     style="fill:none;stroke:#000000;stroke-width:0.13;stroke-linecap:butt;stroke-linejoin:miter"
     id="g522">
    <path
       style="fill:#000000;fill-rule:evenodd;stroke:none"
       id="path524"
       d="m 6.83321,259.891 0,-0.459 -3.52521,0 0,0.343 0.30764,0.091 0.20677,0.181 0.12104,0.278 0.04034,0.383 0.35807,0 0,-0.817 2.49135,0 z" />
  </g>
  <!-- DrawingContent -->
  <text
     freecad:editable="part_name"
     xml:space="preserve"
     style="font-style:normal;font-variant:normal;font-weight:normal;font-stretch:normal;font-size:10.5833px;font-family:'Courier New';-inkscape-font-specification:'Courier New, Normal';font-variant-ligatures:normal;font-variant-caps:normal;font-variant-numeric:normal;font-variant-east-asian:normal;fill:#000000;stroke-width:0.264583"
     x="15.273481"
     y="184.67058"
     id="text745"><tspan
       sodipodi:role="line"
       id="tspan743"
       style="font-style:normal;font-variant:normal;font-weight:normal;font-stretch:normal;font-size:10.5833px;font-family:'Courier New';-inkscape-font-specification:'Courier New, Normal';font-variant-ligatures:normal;font-variant-caps:normal;font-variant-numeric:normal;font-variant-east-asian:normal;stroke-width:0.264583"
       x="15.273481"
       y="184.67058">PART</tspan></text>
  <text
     freecad:editable="version"
     xml:space="preserve"
     style="font-style:normal;font-variant:normal;font-weight:normal;font-stretch:normal;font-size:10.5833px;font-family:'Courier New';-inkscape-font-specification:'Courier New, Normal';font-variant-ligatures:normal;font-variant-caps:normal;font-variant-numeric:normal;font-variant-east-asian:normal;fill:#000000;stroke-width:0.264583"
     x="21.922621"
     y="193.59477"
     id="text745-8"><tspan
       sodipodi:role="line"
       id="tspan743-3"
       style="font-style:normal;font-variant:normal;font-weight:normal;font-stretch:normal;font-size:7.05556px;font-family:'Courier New';-inkscape-font-specification:'Courier New, Normal';font-variant-ligatures:normal;font-variant-caps:normal;font-variant-numeric:normal;font-variant-east-asian:normal;stroke-width:0.264583"
       x="21.922621"
       y="193.59477">V1.0</tspan></text>
  <text
     xml:space="preserve"
     style="font-style:normal;font-variant:normal;font-weight:normal;font-stretch:normal;font-size:10.5833px;font-family:'Courier New';-inkscape-font-specification:'Courier New, Normal';font-variant-ligatures:normal;font-variant-caps:normal;font-variant-numeric:normal;font-variant-east-asian:normal;fill:#000000;stroke-width:0.264583"
     x="14.110758"
     y="16.354412"
     id="text745-3-8"><tspan
       sodipodi:role="line"
       style="font-style:normal;font-variant:normal;font-weight:normal;font-stretch:normal;font-size:3.52778px;font-family:'Courier New';-inkscape-font-specification:'Courier New, Normal';font-variant-ligatures:normal;font-variant-caps:normal;font-variant-numeric:normal;font-variant-east-asian:normal;stroke-width:0.264583"
       x="14.110758"
       y="16.354412"
       id="tspan801-7">Lapis DrawBot</tspan><tspan
       sodipodi:role="line"
       style="font-style:normal;font-variant:normal;font-weight:normal;font-stretch:normal;font-size:3.52778px;font-family:'Courier New';-inkscape-font-specification:'Courier New, Normal';font-variant-ligatures:normal;font-variant-caps:normal;font-variant-numeric:normal;font-variant-east-asian:normal;stroke-width:0.264583"
       x="14.110758"
       y="29.583536"
       id="tspan832" /></text>
  <text
     freecad:editable="date"
     xml:space="preserve"
     style="font-style:normal;font-variant:normal;font-weight:normal;font-stretch:normal;font-size:10.5833px;font-family:'Courier New';-inkscape-font-specification:'Courier New, Normal';font-variant-ligatures:normal;font-variant-caps:normal;font-variant-numeric:normal;font-variant-east-asian:normal;fill:#000000;stroke-width:0.264583"
     x="14.285873"
     y="20.726439"
     id="text745-3"><tspan
       sodipodi:role="line"
       style="font-style:normal;font-variant:normal;font-weight:normal;font-stretch:normal;font-size:3.52778px;font-family:'Courier New';-inkscape-font-specification:'Courier New, Normal';font-variant-ligatures:normal;font-variant-caps:normal;font-variant-numeric:normal;font-variant-east-asian:normal;stroke-width:0.264583"
       x="14.285873"
       y="20.726439"
       id="tspan801">2020-11-01</tspan></text>
</svg>
