<?xml version="1.0" encoding="UTF-8" standalone="no"?>
<!-- Created with Inkscape (http://www.inkscape.org/) -->

<svg
   width="135.15079mm"
   height="31.013519mm"
   viewBox="0 0 135.15079 31.01352"
   version="1.1"
   id="svg5"
   inkscape:version="1.2.1 (9c6d41e410, 2022-07-14)"
   sodipodi:docname="version.svg"
   xmlns:inkscape="http://www.inkscape.org/namespaces/inkscape"
   xmlns:sodipodi="http://sodipodi.sourceforge.net/DTD/sodipodi-0.dtd"
   xmlns="http://www.w3.org/2000/svg"
   xmlns:svg="http://www.w3.org/2000/svg">
  <sodipodi:namedview
     id="namedview7"
     pagecolor="#ffffff"
     bordercolor="#000000"
     borderopacity="0.25"
     inkscape:showpageshadow="2"
     inkscape:pageopacity="0.0"
     inkscape:pagecheckerboard="0"
     inkscape:deskcolor="#d1d1d1"
     inkscape:document-units="mm"
     showgrid="false"
     inkscape:zoom="0.72515432"
     inkscape:cx="47.57608"
     inkscape:cy="246.1545"
     inkscape:window-width="1920"
     inkscape:window-height="1001"
     inkscape:window-x="-9"
     inkscape:window-y="-9"
     inkscape:window-maximized="1"
     inkscape:current-layer="text113" />
  <defs
     id="defs2" />
  <g
     inkscape:label="Layer 1"
     inkscape:groupmode="layer"
     id="layer1"
     transform="translate(-92.50342,-83.544582)">
    <g
       aria-label="Drawbot 2.0.1"
       id="text113"
       style="font-size:35.2777px;font-family:'Freestyle Script';-inkscape-font-specification:'Freestyle Script, Normal';stroke-width:0.264583">
      <path
         d="m 100.73718,86.920768 q -0.46509,0.258381 -0.878498,0.585665 -0.740693,0.620116 -1.102428,0.620116 -0.275607,0 -0.499537,-0.223931 -0.241157,-0.241156 -0.241157,-0.533989 0,-0.637341 1.670868,-1.894798 2.566592,-1.929249 5.649942,-1.929249 2.39434,0 3.80682,1.567515 1.27469,1.412486 1.27469,3.410637 0,3.307284 -2.44602,7.768673 -2.85942,5.219303 -7.44139,8.647173 -3.393407,2.54936 -6.028899,2.54936 -1.033526,0 -1.567515,-0.62011 -0.430636,-0.51677 -0.430636,-1.10243 0,-0.8785 1.136879,-3.96185 1.722544,-4.616421 4.271909,-9.629023 0.378959,-0.75792 2.824972,-5.253759 z m 1.61919,-0.79237 q 0.51676,0.258381 0.51676,0.568439 0,0.223931 -0.65456,1.412486 -3.22116,5.770522 -5.443241,11.058732 -2.015376,4.754225 -2.015376,5.839425 0,0.68902 0.654566,0.68902 1.102428,0 2.962776,-1.18856 2.325435,-1.46416 5.115955,-4.909249 2.53214,-3.100579 3.9963,-6.597343 1.13688,-2.687169 1.13688,-4.771447 0,-1.481387 -0.72347,-2.204856 -0.72347,-0.740694 -2.1704,-0.740694 -1.46417,0 -3.37619,0.844047 z"
         id="path470" />
      <path
         d="m 111.07244,99.529789 q 1.6881,-1.808671 3.89295,-3.531215 0.79237,-0.620116 1.6881,-1.154104 0.44786,-0.258382 0.56844,-0.258382 0.25838,0 0.51676,0.37896 0.15503,0.206705 0.15503,0.378959 0,0.310058 -0.65457,0.844047 -1.75699,1.39526 -1.75699,2.101503 0,0.396186 0.44786,0.396186 0.74069,0 2.54936,-1.223007 0.31006,-0.206705 0.51677,-0.206705 0.1378,0 0.2756,0.137804 0.15503,0.155029 0.15503,0.327283 0,0.516763 -1.44694,1.58474 -1.51583,1.136882 -2.87664,1.136882 -0.55122,0 -1.0163,-0.29284 -0.39619,-0.241151 -0.39619,-0.861267 0,-0.430636 0.36173,-0.98185 -1.36081,0.964624 -3.20393,3.307287 -1.06797,1.44693 -2.11873,3.56566 -0.39618,0.79237 -0.98185,0.79237 -0.63734,0 -0.63734,-0.60289 0,-0.58566 0.99908,-3.13503 1.48139,-3.789594 3.10058,-5.873872 0.99907,-1.291908 1.67086,-1.291908 0.22394,0 0.41342,0.137804 0.22393,0.172254 0.22393,0.430636 0,0.258381 -0.34451,0.723468 -0.0689,0.08613 -0.91295,1.154105 -0.77515,1.016301 -1.18856,2.015376 z"
         id="path467" />
      <path
         d="m 123.78482,102.35476 q -0.56844,0.99908 -1.11966,1.68809 -1.0852,1.34359 -2.15318,1.34359 -0.93017,0 -1.44693,-0.8785 -0.32729,-0.56844 -0.32729,-1.34358 0,-1.91203 1.20578,-4.220236 1.34359,-2.56659 3.23839,-3.944625 1.24023,-0.895723 2.39433,-0.895723 0.72347,0 1.20578,0.447861 0.41341,0.396185 0.41341,0.895723 0,0.37896 -0.29283,1.050752 0.25838,0.361734 0.25838,0.637341 0,0.361734 -0.48231,1.188555 -0.49954,0.844047 -0.99907,2.239312 -0.53399,1.48138 -0.53399,2.37711 0,0.72346 0.43063,1.18855 0.12058,0.12058 0.70625,0.39619 0.43063,0.2067 0.43063,0.72346 0,0.32729 -0.24115,0.53399 -0.25839,0.22393 -0.60289,0.22393 -0.93018,0 -1.60197,-0.82682 -0.55121,-0.67179 -0.55121,-1.68809 0,-0.34451 0.0689,-1.13688 z m 2.15318,-5.667168 q -0.20671,-0.37896 -0.44786,-0.551214 -0.24116,-0.18948 -0.51677,-0.18948 -1.30913,0 -2.84219,2.290983 -1.6881,2.532139 -1.6881,4.289139 0,0.43063 0.15503,0.65456 0.17226,0.22393 0.49954,0.22393 0.82682,0 1.92925,-1.75699 0.62011,-0.96463 1.53306,-2.842199 0.60289,-1.223007 0.8785,-1.619192 0.1378,-0.206705 0.49954,-0.499537 z"
         id="path464" />
      <path
         d="m 133.84448,100.39106 q -1.48139,1.99815 -2.18764,2.75607 -0.87849,0.9474 -1.51583,1.44694 -0.72347,0.53399 -1.34359,0.53399 -0.60289,0 -0.93017,-0.60289 -0.25838,-0.46509 -0.25838,-1.03353 0,-1.87757 2.2393,-5.167632 2.03261,-2.980001 3.01446,-2.980001 0.24115,0 0.46508,0.223931 0.20671,0.206705 0.20671,0.482312 0,0.37896 -0.67179,1.050752 -1.42972,1.412486 -2.48047,3.186708 -0.89572,1.51584 -0.89572,1.98092 0,0.34451 0.31006,0.34451 1.03352,0 4.47861,-4.478611 1.11965,-1.446937 1.36081,-1.670868 0.44786,-0.413411 0.91295,-0.413411 0.31006,0 0.53399,0.172255 0.18948,0.172254 0.18948,0.361734 0,0.206705 -0.82682,1.739769 -1.87758,3.307282 -1.87758,4.461392 0,0.44786 0.36174,0.44786 0.62011,0 1.70532,-1.42971 1.03352,-1.34359 1.91202,-3.41064 0.37896,-0.895723 0.67179,-2.359885 0.34451,-1.670868 1.37804,-1.670868 0.58566,0 0.58566,0.654567 0,2.256533 -2.51491,6.201156 -2.61827,4.11688 -4.40971,4.11688 -1.32636,0 -1.32636,-1.63641 0,-1.34359 0.91295,-3.30729 z"
         id="path461" />
      <path
         d="m 146.12621,96.153603 q 1.46416,-1.240232 2.63549,-1.240232 0.72347,0 1.18856,0.602891 0.43064,0.533988 0.43064,1.240231 0,1.343585 -0.8785,3.255607 -0.98185,2.11873 -2.8422,3.94463 -1.53306,1.51584 -2.92832,1.51584 -0.51677,0 -0.9474,-0.18948 -0.41341,-0.18948 -0.7407,-0.56844 -0.1378,0.24115 -0.17225,0.31005 -0.29283,0.63735 -0.39619,0.77515 -0.12057,0.1378 -0.36173,0.1378 -0.31006,0 -0.58566,-0.36173 -0.18948,-0.24116 -0.18948,-0.51677 0,-0.48231 1.98092,-4.87479 2.7733,-6.13226 6.42509,-12.195615 1.48139,-2.480463 1.80867,-2.911099 0.36173,-0.516763 0.67179,-0.516763 0.37896,0 0.67179,0.378959 0.18948,0.241157 0.18948,0.56844 0,0.361734 -0.32728,0.912948 -0.0689,0.120578 -1.0852,1.77422 -3.11781,4.823123 -4.54752,7.958153 z m -3.42786,6.941847 q 0.25838,0.34451 0.51676,0.51677 0.27561,0.17225 0.56844,0.17225 1.49862,0 3.16948,-2.60104 0.77515,-1.17133 1.22301,-2.325433 0.39618,-1.033526 0.39618,-1.533064 0,-0.344509 -0.15502,-0.499538 -0.15503,-0.172254 -0.48232,-0.172254 -0.79237,0 -1.91202,1.085202 -1.11965,1.067978 -2.20486,3.083357 -0.51676,0.96462 -0.89572,1.80867 -0.22393,0.46508 -0.22393,0.46508 z"
         id="path458" />
      <path
         d="m 157.65003,94.08655 q 1.41249,0 1.41249,1.722544 0,2.290984 -2.11873,5.804976 -2.30821,3.80682 -4.46139,3.80682 -0.99908,0 -1.46416,-0.93017 -0.24116,-0.46509 -0.24116,-1.11966 0,-2.20485 1.51584,-4.78867 1.41249,-2.394336 3.32451,-3.720695 1.11965,-0.775145 2.0326,-0.775145 z m -1.79144,6.51122 q -0.43064,-0.34451 -0.43064,-0.53399 0,-0.137806 0.55121,-0.757922 1.55029,-1.739769 1.55029,-2.807746 0,-0.137804 -0.0861,-0.275607 -0.13781,-0.258382 -0.43064,-0.258382 -0.55121,0 -1.61919,1.067977 -1.37804,1.378036 -2.1015,2.842198 -0.84405,1.670872 -0.84405,2.773292 0,0.29284 0.15503,0.51677 0.22393,0.31005 0.56844,0.31005 0.82682,0 1.77422,-1.24023 0.41341,-0.51676 0.67179,-1.06797 0.25838,-0.55122 0.24116,-0.56844 z"
         id="path455" />
      <path
         d="m 165.4876,94.103776 q -1.11965,1.739769 -2.06705,3.892949 -1.36081,3.066125 -1.36081,4.581965 0,0.43064 0.17225,0.65457 0.18948,0.22393 0.55122,0.22393 0.86127,0 2.08428,-1.61919 0.77514,-0.99908 1.37803,-1.998153 0.32728,-0.56844 0.70624,-0.56844 0.22394,0 0.37896,0.155029 0.13781,0.155029 0.13781,0.310058 0,0.637346 -1.67087,2.842196 -1.99815,2.65272 -3.65179,2.65272 -0.8785,0 -1.46417,-0.8096 -0.36173,-0.51676 -0.36173,-1.46416 0,-2.08428 1.20578,-4.857572 0.29283,-0.689018 1.61919,-3.32451 -0.46508,0.120578 -0.70624,0.120578 -0.36173,0 -0.63734,-0.172254 -0.37896,-0.241157 -0.37896,-0.602891 0,-0.430636 0.49954,-0.689017 0.1378,-0.0689 1.27468,-0.223931 0.41341,-0.0689 1.20578,-0.327283 0.60289,-1.085203 1.9637,-2.94555 0.75792,-1.033527 1.05075,-1.343585 0.41341,-0.430636 0.72347,-0.430636 0.22393,0 0.44786,0.241157 0.20671,0.22393 0.20671,0.447861 0,0.447861 -0.96463,1.77422 -0.63734,0.861272 -0.9474,1.395261 1.91203,-0.516763 2.73885,-0.516763 0.9474,0 0.9474,0.79237 0,0.396185 -0.32729,0.585665 -0.17225,0.103352 -0.89572,0.172254 -0.29283,-0.01722 -2.60104,0.654567 -0.63734,0.18948 -1.25746,0.396185 z"
         id="path452" />
      <path
         d="m 177.80379,103.83615 q 2.89387,-0.91295 5.32266,-0.91295 0.9474,0 1.53307,0.39619 0.51676,0.3445 0.51676,0.84404 0,0.32729 -0.24116,0.58567 -0.24115,0.25838 -0.55121,0.25838 -0.10335,0 -0.31006,-0.0517 -0.89572,-0.24115 -1.61919,-0.24115 -0.63734,0 -1.56752,0.12057 -0.32728,0.0517 -2.39433,0.62012 -1.86035,0.49954 -2.20486,0.49954 -0.48231,0 -0.84404,-0.46509 -0.32729,-0.43064 -0.32729,-0.89572 0,-0.51677 0.89573,-1.39526 1.68809,-1.65364 3.2556,-2.98 1.48139,-1.240235 3.66902,-2.859426 2.49769,-1.843122 3.44509,-2.687169 1.41249,-1.240231 1.41249,-2.480463 0,-0.689017 -0.44787,-1.085202 -0.39618,-0.344509 -0.99907,-0.344509 -1.55029,0 -3.65179,1.739769 -0.96463,0.79237 -1.20579,0.79237 -0.17225,0 -0.39618,-0.206705 -0.24116,-0.206705 -0.24116,-0.499538 0,-0.620116 1.49862,-1.756995 2.41156,-1.825896 4.59919,-1.825896 1.25746,0 2.1015,0.809596 0.8096,0.775144 0.8096,1.877572 0,1.92925 -1.9637,3.824048 -0.84405,0.826821 -3.10058,2.480463 -5.42601,3.961855 -6.99353,5.839425 z"
         id="path449" />
      <path
         d="m 190.29223,103.9395 q 0.37896,0 0.63735,0.34451 0.17225,0.22393 0.17225,0.56844 0,0.8096 -0.44786,1.70532 -0.46509,0.9474 -1.22301,0.9474 -0.79237,0 -0.79237,-0.89573 0,-0.89572 0.55122,-1.82589 0.49953,-0.84405 1.10242,-0.84405 z"
         id="path446" />
      <path
         d="m 206.79421,89.831867 q 0.93017,0.361734 1.37803,1.17133 0.46509,0.79237 0.46509,2.032602 0,3.841272 -2.99723,8.164861 -3.25561,4.70254 -6.23561,4.70254 -1.48138,0 -2.22208,-1.53306 -0.48231,-0.99908 -0.48231,-2.41156 0,-3.410641 2.49769,-7.200237 1.29191,-1.946475 3.49676,-4.013528 2.30821,-2.135954 3.32451,-2.135954 0.77515,0 0.77515,1.223006 z m -2.23931,1.240232 q -2.01538,1.653642 -3.56567,4.030752 -2.22208,3.410637 -2.22208,6.597339 0,0.9474 0.25838,1.48139 0.43064,0.82682 1.18856,0.82682 1.18855,0 2.8422,-1.82589 1.84312,-2.03261 2.89387,-4.96093 0.8096,-2.222081 0.8096,-3.755145 0,-1.067978 -0.65457,-1.825897 -0.44786,-0.533988 -1.18856,-0.568439 -0.18948,0 -0.36173,0 z"
         id="path443" />
      <path
         d="m 209.6364,103.9395 q 0.37896,0 0.63735,0.34451 0.17225,0.22393 0.17225,0.56844 0,0.8096 -0.44786,1.70532 -0.46509,0.9474 -1.22301,0.9474 -0.79237,0 -0.79237,-0.89573 0,-0.89572 0.55122,-1.82589 0.49953,-0.84405 1.10242,-0.84405 z"
         id="path440" />
      <path
         d="m 224.72589,91.451058 q -1.20578,0.912949 -2.41156,1.55029 -1.63642,0.878497 -2.15318,0.878497 -0.55122,0 -0.55122,-0.878497 0,-0.310058 0.13781,-0.533989 0.1378,-0.206705 0.65456,-0.396185 1.55029,-0.654567 4.51307,-2.514914 1.34358,-0.844046 1.8948,-0.844046 0.36173,0 0.65456,0.361734 0.18948,0.241156 0.18948,0.516763 0,0.430636 -0.67179,1.464162 -4.97815,8.061506 -6.89017,12.660697 -0.46509,1.11965 -0.6718,1.39526 -0.32728,0.46509 -0.65456,0.46509 -0.32729,0 -0.62012,-0.39619 -0.17225,-0.22393 -0.17225,-0.48231 0,-0.93017 2.65272,-6.132256 2.48046,-4.892024 4.09965,-7.114106 z"
         id="path437" />
    </g>
    <rect
       style="fill:#000000;stroke-width:0.264583"
       id="rect270"
       width="130.62161"
       height="2.9189188"
       x="93.598015"
       y="111.63918" />
  </g>
</svg>
